<svg xmlns="http://www.w3.org/2000/svg" xml:space="preserve" width="127.748" height="127.748" viewBox="0 0 33.8 33.8"><rect width="142.643" height="92.843" x="-54.315" y="-22.119" ry=".026" style="fill:#0047ab;stroke-width:.79375;stroke-linejoin:bevel;fill-opacity:1"/><g style="fill:#fff"><g style="fill:#fff"><path d="M111.754 77.747 97.268 92.234a2.414 2.414 0 0 0 0 3.413 2.414 2.414 0 0 0 3.414 0l12.779-12.779 12.779 12.78a2.414 2.414 0 0 0 3.414 0 2.414 2.414 0 0 0 0-3.414l-14.486-14.487a2.414 2.414 0 0 0-3.414 0z" style="color:#000;fill:#fff;stroke-width:1.20718;stroke-linecap:round;stroke-linejoin:round;-inkscape-stroke:none" transform="matrix(.74804 0 0 .74804 -67.973 -53.371)"/><path d="M111.754 92.234 97.268 106.72a2.414 2.414 0 0 0 0 3.414 2.414 2.414 0 0 0 3.414 0l12.779-12.78 12.779 12.78a2.414 2.414 0 0 0 3.414 0 2.414 2.414 0 0 0 0-3.414l-14.486-14.486a2.414 2.414 0 0 0-3.414 0z" style="color:#000;fill:#fff;stroke-width:1.20718;stroke-linecap:round;stroke-linejoin:round;-inkscape-stroke:none" transform="matrix(.74804 0 0 .74804 -67.973 -53.371)"/></g></g></svg>