<svg xmlns="http://www.w3.org/2000/svg" xml:space="preserve" width="684.023" height="376.951" viewBox="0 0 180.981 99.735"><defs><path id="a" d="M-312.767 136.972h585.541v398.615h-585.541z"/></defs><g transform="translate(-34.176 -40.446)"><rect width="180.981" height="99.735" x="34.176" y="40.446" ry=".026" style="fill:#0047ab;fill-opacity:1;stroke-width:.79375;stroke-linejoin:bevel"/><g aria-label="uppy" style="font-weight:700;font-size:192px;font-family:Quicksand;-inkscape-font-specification:&quot;Quicksand Bold&quot;;letter-spacing:0;word-spacing:0;white-space:pre;fill:#fff"><path d="M113.851 79.516q1.056 0 1.747.731.69.69.69 1.747v10.317q0 4.386-2.437 6.864-2.396 2.477-6.864 2.477t-6.864-2.477q-2.397-2.478-2.397-6.864V81.994q0-1.056.69-1.747.691-.73 1.747-.73t1.747.73q.69.69.69 1.747v10.317q0 2.477 1.097 3.696 1.097 1.178 3.29 1.178 2.234 0 3.33-1.178 1.097-1.219 1.097-3.696V81.994q0-1.056.69-1.747.691-.73 1.747-.73zM132.819 79.11q2.802 0 5.077 1.462 2.275 1.422 3.574 3.98 1.34 2.56 1.34 5.809 0 3.25-1.3 5.849-1.299 2.559-3.573 4.02-2.234 1.422-4.956 1.422-1.95 0-3.696-.771-1.706-.813-2.843-1.95v7.96q0 1.057-.69 1.747-.69.731-1.747.731-1.056 0-1.746-.69t-.69-1.787V81.994q0-1.056.69-1.747.69-.73 1.746-.73t1.747.73q.69.69.69 1.747v.162q.975-1.218 2.721-2.112 1.747-.934 3.656-.934zm-.61 18.075q2.6 0 4.265-1.95 1.666-1.95 1.666-4.874 0-2.924-1.666-4.833-1.624-1.95-4.264-1.95t-4.306 1.95q-1.665 1.909-1.665 4.833 0 2.924 1.665 4.874 1.666 1.95 4.306 1.95zM158.123 79.11q2.803 0 5.077 1.462 2.275 1.422 3.574 3.98 1.34 2.56 1.34 5.809 0 3.25-1.3 5.849-1.299 2.559-3.573 4.02-2.234 1.422-4.956 1.422-1.95 0-3.696-.771-1.706-.813-2.843-1.95v7.96q0 1.057-.69 1.747-.69.731-1.747.731-1.056 0-1.746-.69t-.69-1.787V81.994q0-1.056.69-1.747.69-.73 1.746-.73t1.747.73q.69.69.69 1.747v.162q.975-1.218 2.721-2.112 1.747-.934 3.656-.934zm-.61 18.075q2.6 0 4.265-1.95 1.666-1.95 1.666-4.874 0-2.924-1.666-4.833-1.624-1.95-4.264-1.95t-4.306 1.95q-1.665 1.909-1.665 4.833 0 2.924 1.665 4.874 1.666 1.95 4.306 1.95zM188.301 79.516q1.056 0 1.746.731.69.69.69 1.747v17.262q0 5.28-2.842 7.676-2.843 2.437-7.595 2.437-1.381 0-2.844-.243-1.421-.203-2.315-.569-1.99-.853-1.99-2.356 0-.284.122-.65.244-.893.812-1.38.61-.447 1.3-.447.406 0 .772.122.284.121.974.406.732.284 1.503.447.813.203 1.666.203 2.883 0 4.224-1.26 1.38-1.218 1.38-4.224v-.406q-2.111 2.64-6.58 2.64-2.111 0-3.736-.974-1.625-1.016-2.518-2.762-.894-1.788-.894-4.062v-11.86q0-1.056.69-1.747.691-.73 1.747-.73t1.747.73q.69.69.69 1.747v10.398q0 2.559 1.097 3.696 1.137 1.097 3.29 1.097 2.112 0 3.25-1.219 1.177-1.26 1.177-3.574V81.994q0-1.056.69-1.747.69-.73 1.747-.73z"/></g><g style="fill:none"><path fill="#fff" fill-opacity=".01" d="M46.953 59.754h57.944v57.945H46.953z"/><path d="m22.586 10.586-12 12a2 2 0 0 0 0 2.828 2 2 0 0 0 2.828 0L24 14.828l10.586 10.586a2 2 0 0 0 2.828 0 2 2 0 0 0 0-2.828l-12-12a2 2 0 0 0-2.828 0z" style="color:#000;fill:#fff;stroke-linecap:round;stroke-linejoin:round;-inkscape-stroke:none" transform="matrix(1.20718 0 0 1.20718 46.953 59.754)"/><path d="m22.586 22.586-12 12a2 2 0 0 0 0 2.828 2 2 0 0 0 2.828 0L24 26.828l10.586 10.586a2 2 0 0 0 2.828 0 2 2 0 0 0 0-2.828l-12-12a2 2 0 0 0-2.828 0z" style="color:#000;fill:#fff;stroke-linecap:round;stroke-linejoin:round;-inkscape-stroke:none" transform="matrix(1.20718 0 0 1.20718 46.953 59.754)"/></g></g></svg>